<mxfile host="app.diagrams.net" agent="Mozilla/5.0 (Windows NT 10.0; Win64; x64) AppleWebKit/537.36 (KHTML, like Gecko) Chrome/132.0.0.0 Safari/537.36 OPR/117.0.0.0" version="26.2.8">
  <diagram name="Página-1" id="l1jLAdZ6B3mxuaky3lha">
    <mxGraphModel dx="833" dy="1622" grid="1" gridSize="10" guides="1" tooltips="1" connect="1" arrows="1" fold="1" page="1" pageScale="1" pageWidth="827" pageHeight="1169" math="0" shadow="0">
      <root>
        <mxCell id="0" />
        <mxCell id="1" parent="0" />
        <mxCell id="yrTQXwwopUHURJu-_qlh-17" value="" style="edgeStyle=orthogonalEdgeStyle;rounded=0;orthogonalLoop=1;jettySize=auto;html=1;" edge="1" parent="1" source="yrTQXwwopUHURJu-_qlh-18" target="yrTQXwwopUHURJu-_qlh-20">
          <mxGeometry relative="1" as="geometry" />
        </mxCell>
        <mxCell id="yrTQXwwopUHURJu-_qlh-18" value="Início" style="rounded=1;whiteSpace=wrap;html=1;fontSize=12;glass=0;strokeWidth=1;shadow=0;" vertex="1" parent="1">
          <mxGeometry x="425" y="-1060" width="60" height="40" as="geometry" />
        </mxCell>
        <mxCell id="yrTQXwwopUHURJu-_qlh-19" value="" style="edgeStyle=orthogonalEdgeStyle;rounded=0;orthogonalLoop=1;jettySize=auto;html=1;" edge="1" parent="1" source="yrTQXwwopUHURJu-_qlh-20" target="yrTQXwwopUHURJu-_qlh-25">
          <mxGeometry relative="1" as="geometry" />
        </mxCell>
        <mxCell id="yrTQXwwopUHURJu-_qlh-20" value="i = 0" style="rounded=0;whiteSpace=wrap;html=1;" vertex="1" parent="1">
          <mxGeometry x="395" y="-970" width="120" height="60" as="geometry" />
        </mxCell>
        <mxCell id="yrTQXwwopUHURJu-_qlh-21" value="" style="edgeStyle=orthogonalEdgeStyle;rounded=0;orthogonalLoop=1;jettySize=auto;html=1;" edge="1" parent="1" source="yrTQXwwopUHURJu-_qlh-25" target="yrTQXwwopUHURJu-_qlh-27">
          <mxGeometry relative="1" as="geometry" />
        </mxCell>
        <mxCell id="yrTQXwwopUHURJu-_qlh-22" value="Não" style="edgeLabel;html=1;align=center;verticalAlign=middle;resizable=0;points=[];" vertex="1" connectable="0" parent="yrTQXwwopUHURJu-_qlh-21">
          <mxGeometry x="-0.64" y="-1" relative="1" as="geometry">
            <mxPoint as="offset" />
          </mxGeometry>
        </mxCell>
        <mxCell id="yrTQXwwopUHURJu-_qlh-23" style="edgeStyle=orthogonalEdgeStyle;rounded=0;orthogonalLoop=1;jettySize=auto;html=1;entryX=0;entryY=0.5;entryDx=0;entryDy=0;" edge="1" parent="1" source="yrTQXwwopUHURJu-_qlh-25" target="yrTQXwwopUHURJu-_qlh-30">
          <mxGeometry relative="1" as="geometry" />
        </mxCell>
        <mxCell id="yrTQXwwopUHURJu-_qlh-24" value="Sim" style="edgeLabel;html=1;align=center;verticalAlign=middle;resizable=0;points=[];" vertex="1" connectable="0" parent="yrTQXwwopUHURJu-_qlh-23">
          <mxGeometry x="-0.0312" relative="1" as="geometry">
            <mxPoint as="offset" />
          </mxGeometry>
        </mxCell>
        <mxCell id="yrTQXwwopUHURJu-_qlh-25" value="i = 10 ?" style="shape=hexagon;perimeter=hexagonPerimeter2;whiteSpace=wrap;html=1;fixedSize=1;" vertex="1" parent="1">
          <mxGeometry x="395" y="-880" width="120" height="80" as="geometry" />
        </mxCell>
        <mxCell id="yrTQXwwopUHURJu-_qlh-26" value="" style="edgeStyle=orthogonalEdgeStyle;rounded=0;orthogonalLoop=1;jettySize=auto;html=1;" edge="1" parent="1" source="yrTQXwwopUHURJu-_qlh-27">
          <mxGeometry relative="1" as="geometry">
            <mxPoint x="455" y="-644.5" as="targetPoint" />
          </mxGeometry>
        </mxCell>
        <mxCell id="yrTQXwwopUHURJu-_qlh-27" value="i = i + 1" style="whiteSpace=wrap;html=1;" vertex="1" parent="1">
          <mxGeometry x="395" y="-750" width="120" height="60" as="geometry" />
        </mxCell>
        <mxCell id="yrTQXwwopUHURJu-_qlh-28" style="edgeStyle=orthogonalEdgeStyle;rounded=0;orthogonalLoop=1;jettySize=auto;html=1;entryX=1;entryY=0.5;entryDx=0;entryDy=0;" edge="1" parent="1" source="yrTQXwwopUHURJu-_qlh-29" target="yrTQXwwopUHURJu-_qlh-37">
          <mxGeometry relative="1" as="geometry">
            <Array as="points">
              <mxPoint x="640" y="-450" />
            </Array>
          </mxGeometry>
        </mxCell>
        <mxCell id="yrTQXwwopUHURJu-_qlh-29" value="i" style="shape=display;whiteSpace=wrap;html=1;" vertex="1" parent="1">
          <mxGeometry x="600" y="-620" width="80" height="40" as="geometry" />
        </mxCell>
        <mxCell id="yrTQXwwopUHURJu-_qlh-30" value="Fim" style="rounded=1;whiteSpace=wrap;html=1;fontSize=12;glass=0;strokeWidth=1;shadow=0;" vertex="1" parent="1">
          <mxGeometry x="651.25" y="-860" width="60" height="40" as="geometry" />
        </mxCell>
        <mxCell id="yrTQXwwopUHURJu-_qlh-31" value="" style="edgeStyle=orthogonalEdgeStyle;rounded=0;orthogonalLoop=1;jettySize=auto;html=1;" edge="1" parent="1" source="yrTQXwwopUHURJu-_qlh-35" target="yrTQXwwopUHURJu-_qlh-29">
          <mxGeometry relative="1" as="geometry" />
        </mxCell>
        <mxCell id="yrTQXwwopUHURJu-_qlh-32" value="Verdadeiro" style="edgeLabel;html=1;align=center;verticalAlign=middle;resizable=0;points=[];" connectable="0" vertex="1" parent="yrTQXwwopUHURJu-_qlh-31">
          <mxGeometry x="-0.1048" y="1" relative="1" as="geometry">
            <mxPoint as="offset" />
          </mxGeometry>
        </mxCell>
        <mxCell id="yrTQXwwopUHURJu-_qlh-33" style="edgeStyle=orthogonalEdgeStyle;rounded=0;orthogonalLoop=1;jettySize=auto;html=1;entryX=0.5;entryY=0;entryDx=0;entryDy=0;" edge="1" parent="1" source="yrTQXwwopUHURJu-_qlh-35" target="yrTQXwwopUHURJu-_qlh-37">
          <mxGeometry relative="1" as="geometry" />
        </mxCell>
        <mxCell id="yrTQXwwopUHURJu-_qlh-34" value="Falso" style="edgeLabel;html=1;align=center;verticalAlign=middle;resizable=0;points=[];" connectable="0" vertex="1" parent="yrTQXwwopUHURJu-_qlh-33">
          <mxGeometry x="-0.2" y="2" relative="1" as="geometry">
            <mxPoint as="offset" />
          </mxGeometry>
        </mxCell>
        <mxCell id="yrTQXwwopUHURJu-_qlh-35" value="i % 2 = 0" style="rhombus;whiteSpace=wrap;html=1;" vertex="1" parent="1">
          <mxGeometry x="415" y="-640" width="80" height="80" as="geometry" />
        </mxCell>
        <mxCell id="yrTQXwwopUHURJu-_qlh-36" style="edgeStyle=orthogonalEdgeStyle;rounded=0;orthogonalLoop=1;jettySize=auto;html=1;entryX=0;entryY=0.5;entryDx=0;entryDy=0;" edge="1" parent="1" source="yrTQXwwopUHURJu-_qlh-37" target="yrTQXwwopUHURJu-_qlh-25">
          <mxGeometry relative="1" as="geometry">
            <Array as="points">
              <mxPoint x="230" y="-450" />
              <mxPoint x="230" y="-840" />
            </Array>
          </mxGeometry>
        </mxCell>
        <mxCell id="yrTQXwwopUHURJu-_qlh-37" value="" style="ellipse;whiteSpace=wrap;html=1;aspect=fixed;" vertex="1" parent="1">
          <mxGeometry x="430" y="-475" width="50" height="50" as="geometry" />
        </mxCell>
      </root>
    </mxGraphModel>
  </diagram>
</mxfile>
